<svg xmlns="http://www.w3.org/2000/svg" xmlns:xlink="http://www.w3.org/1999/xlink" id="processonSvg1000" viewBox="361.0 182.0 338.0 220.5" width="338.0" height="220.5"><defs id="ProcessOnDefs1001"><marker id="ProcessOnMarker1023" markerUnits="userSpaceOnUse" orient="auto" markerWidth="16.23606797749979" markerHeight="10.550836550532098" viewBox="-1.0 -1.3763819204711736 16.23606797749979 10.550836550532098" refX="-1.0" refY="3.8990363547948754"><path id="ProcessOnPath1024" d="M12.0 3.8990363547948754L0.0 7.798072709589751V0.0Z" stroke="#ff9933" stroke-width="2.0" fill="#ff9933" transform="matrix(1.0,0.0,0.0,1.0,0.0,0.0)"/></marker><marker id="ProcessOnMarker1027" markerUnits="userSpaceOnUse" orient="auto" markerWidth="16.23606797749979" markerHeight="10.550836550532098" viewBox="-1.0 -1.3763819204711736 16.23606797749979 10.550836550532098" refX="-1.0" refY="3.8990363547948754"><path id="ProcessOnPath1028" d="M12.0 3.8990363547948754L0.0 7.798072709589751V0.0Z" stroke="#ff9933" stroke-width="2.0" fill="#ff9933" transform="matrix(1.0,0.0,0.0,1.0,0.0,0.0)"/></marker><marker id="ProcessOnMarker1031" markerUnits="userSpaceOnUse" orient="auto" markerWidth="16.23606797749979" markerHeight="10.550836550532098" viewBox="-1.0 -1.3763819204711736 16.23606797749979 10.550836550532098" refX="-1.0" refY="3.8990363547948754"><path id="ProcessOnPath1032" d="M12.0 3.8990363547948754L0.0 7.798072709589751V0.0Z" stroke="#ff9933" stroke-width="2.0" fill="#ff9933" transform="matrix(1.0,0.0,0.0,1.0,0.0,0.0)"/></marker><marker id="ProcessOnMarker1035" markerUnits="userSpaceOnUse" orient="auto" markerWidth="16.23606797749979" markerHeight="10.550836550532098" viewBox="-1.0 -1.3763819204711736 16.23606797749979 10.550836550532098" refX="-1.0" refY="3.8990363547948754"><path id="ProcessOnPath1036" d="M12.0 3.8990363547948754L0.0 7.798072709589751V0.0Z" stroke="#ff9933" stroke-width="2.0" fill="#ff9933" transform="matrix(1.0,0.0,0.0,1.0,0.0,0.0)"/></marker></defs><g id="ProcessOnG1002"><path id="ProcessOnPath1003" d="M361.0 182.0H699.0V402.5H361.0V182.0Z" fill="#ffffff"/><g id="ProcessOnG1004"><g id="ProcessOnG1005" transform="matrix(1.0,0.0,0.0,1.0,381.0,333.5)" opacity="1.0"><path id="ProcessOnPath1006" d="M0.0 0.0L100.0 0.0L100.0 49.0L0.0 49.0Z" stroke="#66b2ff" stroke-width="2.0" stroke-dasharray="none" opacity="1.0" fill="#66b2ff"/><g id="ProcessOnG1007" transform="matrix(1.0,0.0,0.0,1.0,10.0,13.25)"><text id="ProcessOnText1008" fill="#ffffff" font-weight="normal" font-style="normal" text-decoration="blink" font-family="Comic Sans MS" text-anchor="middle" font-size="18" x="40.0" y="18.45">Develop</text></g></g><g id="ProcessOnG1009" transform="matrix(1.0,0.0,0.0,1.0,579.0,334.0)" opacity="1.0"><path id="ProcessOnPath1010" d="M0.0 0.0L100.0 0.0L100.0 48.0L0.0 48.0Z" stroke="#66b2ff" stroke-width="2.0" stroke-dasharray="none" opacity="1.0" fill="#66b2ff"/><g id="ProcessOnG1011" transform="matrix(1.0,0.0,0.0,1.0,10.0,12.75)"><text id="ProcessOnText1012" fill="#ffffff" font-weight="normal" font-style="normal" text-decoration="blink" font-family="Comic Sans MS" text-anchor="middle" font-size="18" x="40.0" y="18.45">Test</text></g></g><g id="ProcessOnG1013" transform="matrix(1.0,0.0,0.0,1.0,579.0,202.5)" opacity="1.0"><path id="ProcessOnPath1014" d="M0.0 0.0L100.0 0.0L100.0 48.0L0.0 48.0Z" stroke="#66b2ff" stroke-width="2.0" stroke-dasharray="none" opacity="1.0" fill="#66b2ff"/><g id="ProcessOnG1015" transform="matrix(1.0,0.0,0.0,1.0,10.0,12.75)"><text id="ProcessOnText1016" fill="#ffffff" font-weight="normal" font-style="normal" text-decoration="blink" font-family="Comic Sans MS" text-anchor="middle" font-size="18" x="40.0" y="18.45">Release</text></g></g><g id="ProcessOnG1017" transform="matrix(1.0,0.0,0.0,1.0,381.0,202.0)" opacity="1.0"><path id="ProcessOnPath1018" d="M0.0 0.0L100.0 0.0L100.0 49.0L0.0 49.0Z" stroke="#66b2ff" stroke-width="2.0" stroke-dasharray="none" opacity="1.0" fill="#66b2ff"/><g id="ProcessOnG1019" transform="matrix(1.0,0.0,0.0,1.0,10.0,13.25)"><text id="ProcessOnText1020" fill="#ffffff" font-weight="normal" font-style="normal" text-decoration="blink" font-family="Comic Sans MS" text-anchor="middle" font-size="18" x="40.0" y="18.45">Design</text></g></g><g id="ProcessOnG1021"><path id="ProcessOnPath1022" d="M431.0 251.0L431.0 292.25L431.0 292.25L431.0 318.2639320225002" stroke="#ff9933" stroke-width="2.0" stroke-dasharray="none" fill="none" marker-end="url(#ProcessOnMarker1023)"/></g><g id="ProcessOnG1025"><path id="ProcessOnPath1026" d="M579.0 226.5L530.0 226.5L530.0 226.5L496.2360679774998 226.5" stroke="#ff9933" stroke-width="2.0" stroke-dasharray="none" fill="none" marker-end="url(#ProcessOnMarker1027)"/></g><g id="ProcessOnG1029"><path id="ProcessOnPath1030" d="M629.0 334.0L629.0 292.25L629.0 292.25L629.0 265.7360679774998" stroke="#ff9933" stroke-width="2.0" stroke-dasharray="none" fill="none" marker-end="url(#ProcessOnMarker1031)"/></g><g id="ProcessOnG1033"><path id="ProcessOnPath1034" d="M481.0 358.0L530.0 358.0L530.0 358.0L563.7639320225002 358.0" stroke="#ff9933" stroke-width="2.0" stroke-dasharray="none" fill="none" marker-end="url(#ProcessOnMarker1035)"/></g></g></g></svg>