<svg xmlns="http://www.w3.org/2000/svg" xmlns:xlink="http://www.w3.org/1999/xlink" id="processonSvg1000" viewBox="63.0 1.0 553.0 581.0" width="553.0" height="581.0"><defs id="ProcessOnDefs1001"><marker id="ProcessOnMarker1015" markerUnits="userSpaceOnUse" orient="auto" markerWidth="16.23606797749979" markerHeight="10.550836550532098" viewBox="-1.0 -1.3763819204711736 16.23606797749979 10.550836550532098" refX="-1.0" refY="3.8990363547948754"><path id="ProcessOnPath1016" d="M12.0 3.8990363547948754L0.0 7.798072709589751V0.0Z" stroke="#ff9933" stroke-width="2.0" fill="#ff9933" transform="matrix(1.0,0.0,0.0,1.0,0.0,0.0)"/></marker><marker id="ProcessOnMarker1019" markerUnits="userSpaceOnUse" orient="auto" markerWidth="16.23606797749979" markerHeight="10.550836550532098" viewBox="-1.0 -1.3763819204711736 16.23606797749979 10.550836550532098" refX="-1.0" refY="3.8990363547948754"><path id="ProcessOnPath1020" d="M12.0 3.8990363547948754L0.0 7.798072709589751V0.0Z" stroke="#ff9933" stroke-width="2.0" fill="#ff9933" transform="matrix(1.0,0.0,0.0,1.0,0.0,0.0)"/></marker><marker id="ProcessOnMarker1051" markerUnits="userSpaceOnUse" orient="auto" markerWidth="16.23606797749979" markerHeight="10.550836550532098" viewBox="-1.0 -1.3763819204711736 16.23606797749979 10.550836550532098" refX="-1.0" refY="3.8990363547948754"><path id="ProcessOnPath1052" d="M12.0 3.8990363547948754L0.0 7.798072709589751V0.0Z" stroke="#ffb366" stroke-width="2.0" fill="#ffb366" transform="matrix(1.0,0.0,0.0,1.0,0.0,0.0)"/></marker><marker id="ProcessOnMarker1058" markerUnits="userSpaceOnUse" orient="auto" markerWidth="16.23606797749979" markerHeight="10.550836550532098" viewBox="-1.0 -1.3763819204711736 16.23606797749979 10.550836550532098" refX="-1.0" refY="3.8990363547948754"><path id="ProcessOnPath1059" d="M12.0 3.8990363547948754L0.0 7.798072709589751V0.0Z" stroke="#ffb366" stroke-width="2.0" fill="#ffb366" transform="matrix(1.0,0.0,0.0,1.0,0.0,0.0)"/></marker><marker id="ProcessOnMarker1062" markerUnits="userSpaceOnUse" orient="auto" markerWidth="16.23606797749979" markerHeight="10.550836550532098" viewBox="-1.0 -1.3763819204711736 16.23606797749979 10.550836550532098" refX="-1.0" refY="3.8990363547948754"><path id="ProcessOnPath1063" d="M12.0 3.8990363547948754L0.0 7.798072709589751V0.0Z" stroke="#ffb366" stroke-width="2.0" fill="#ffb366" transform="matrix(1.0,0.0,0.0,1.0,0.0,0.0)"/></marker><marker id="ProcessOnMarker1066" markerUnits="userSpaceOnUse" orient="auto" markerWidth="16.23606797749979" markerHeight="10.550836550532098" viewBox="-1.0 -1.3763819204711736 16.23606797749979 10.550836550532098" refX="-1.0" refY="3.8990363547948754"><path id="ProcessOnPath1067" d="M12.0 3.8990363547948754L0.0 7.798072709589751V0.0Z" stroke="#ffb366" stroke-width="2.0" fill="#ffb366" transform="matrix(1.0,0.0,0.0,1.0,0.0,0.0)"/></marker><marker id="ProcessOnMarker1070" markerUnits="userSpaceOnUse" orient="auto" markerWidth="16.23606797749979" markerHeight="10.550836550532098" viewBox="-1.0 -1.3763819204711736 16.23606797749979 10.550836550532098" refX="-1.0" refY="3.8990363547948754"><path id="ProcessOnPath1071" d="M12.0 3.8990363547948754L0.0 7.798072709589751V0.0Z" stroke="#ffb366" stroke-width="2.0" fill="#ffb366" transform="matrix(1.0,0.0,0.0,1.0,0.0,0.0)"/></marker><marker id="ProcessOnMarker1077" markerUnits="userSpaceOnUse" orient="auto" markerWidth="16.23606797749979" markerHeight="10.550836550532098" viewBox="-1.0 -1.3763819204711736 16.23606797749979 10.550836550532098" refX="-1.0" refY="3.8990363547948754"><path id="ProcessOnPath1078" d="M12.0 3.8990363547948754L0.0 7.798072709589751V0.0Z" stroke="#ffb366" stroke-width="2.0" fill="#ffb366" transform="matrix(1.0,0.0,0.0,1.0,0.0,0.0)"/></marker><marker id="ProcessOnMarker1081" markerUnits="userSpaceOnUse" orient="auto" markerWidth="16.23606797749979" markerHeight="10.550836550532098" viewBox="-1.0 -1.3763819204711736 16.23606797749979 10.550836550532098" refX="-1.0" refY="3.8990363547948754"><path id="ProcessOnPath1082" d="M12.0 3.8990363547948754L0.0 7.798072709589751V0.0Z" stroke="#ffb366" stroke-width="2.0" fill="#ffb366" transform="matrix(1.0,0.0,0.0,1.0,0.0,0.0)"/></marker><marker id="ProcessOnMarker1088" markerUnits="userSpaceOnUse" orient="auto" markerWidth="16.23606797749979" markerHeight="10.550836550532098" viewBox="-1.0 -1.3763819204711736 16.23606797749979 10.550836550532098" refX="-1.0" refY="3.8990363547948754"><path id="ProcessOnPath1089" d="M12.0 3.8990363547948754L0.0 7.798072709589751V0.0Z" stroke="#ffb366" stroke-width="2.0" fill="#ffb366" transform="matrix(1.0,0.0,0.0,1.0,0.0,0.0)"/></marker></defs><g id="ProcessOnG1002"><path id="ProcessOnPath1003" d="M63.0 1.0H616.0V582.0H63.0V1.0Z" fill="#ffffff"/><g id="ProcessOnG1004"><g id="ProcessOnG1005" transform="matrix(1.0,0.0,0.0,1.0,382.0,502.0)" opacity="1.0"><path id="ProcessOnPath1006" d="M0.0 0.0L180.0 0.0L180.0 60.0L0.0 60.0Z" stroke="#66b2ff" stroke-width="2.0" stroke-dasharray="none" opacity="1.0" fill="#66b2ff"/><g id="ProcessOnG1007" transform="matrix(1.0,0.0,0.0,1.0,10.0,19.375)"><text id="ProcessOnText1008" fill="#ffffff" font-weight="normal" font-style="normal" text-decoration="blink" font-family="Comic Sans MS" text-anchor="middle" font-size="17" x="80.0" y="17.425">Email 报告</text></g></g><g id="ProcessOnG1009" transform="matrix(1.0,0.0,0.0,1.0,83.0,143.0)" opacity="1.0"><path id="ProcessOnPath1010" d="M0.0 0.0L180.0 0.0L180.0 60.0L0.0 60.0Z" stroke="#66b2ff" stroke-width="2.0" stroke-dasharray="none" opacity="1.0" fill="#66b2ff"/><g id="ProcessOnG1011" transform="matrix(1.0,0.0,0.0,1.0,10.0,19.375)"><text id="ProcessOnText1012" fill="#ffffff" font-weight="normal" font-style="normal" text-decoration="blink" font-family="Comic Sans MS" text-anchor="middle" font-size="17" x="80.0" y="17.425">每天19:00获取源码</text></g></g><g id="ProcessOnG1013"><path id="ProcessOnPath1014" d="M173.0 203.0L173.0 231.5L173.0 231.5L173.0 244.7639320225002" stroke="#ff9933" stroke-width="2.0" stroke-dasharray="none" fill="none" marker-end="url(#ProcessOnMarker1015)"/></g><g id="ProcessOnG1017"><path id="ProcessOnPath1018" d="M173.0 81.0L173.0 112.0L173.0 112.0L173.0 127.76393202250021" stroke="#ff9933" stroke-width="2.0" stroke-dasharray="none" fill="none" marker-end="url(#ProcessOnMarker1019)"/></g><g id="ProcessOnG1021" transform="matrix(1.0,0.0,0.0,1.0,83.0,21.0)" opacity="1.0"><path id="ProcessOnPath1022" d="M20.0 0.0L160.0 0.0C186.66666666666666 0.0 186.66666666666666 60.0 160.0 60.0L20.0 60.0C-6.666666666666667 60.0 -6.666666666666667 0.0 20.0 0.0Z" stroke="#666600" stroke-width="2.0" stroke-dasharray="none" opacity="1.0" fill="#666600"/><g id="ProcessOnG1023" transform="matrix(1.0,0.0,0.0,1.0,10.0,19.375)"><text id="ProcessOnText1024" fill="#ffffff" font-weight="normal" font-style="normal" text-decoration="blink" font-family="Comic Sans MS" text-anchor="middle" font-size="17" x="80.0" y="17.425">开始</text></g></g><g id="ProcessOnG1025" transform="matrix(1.0,0.0,0.0,1.0,83.0,260.0)" opacity="1.0"><path id="ProcessOnPath1026" d="M0.0 30.0L90.0 0.0L180.0 30.0L90.0 60.0L0.0 30.0Z" stroke="#ff6666" stroke-width="2.0" stroke-dasharray="none" opacity="1.0" fill="#ff6666"/><g id="ProcessOnG1027" transform="matrix(1.0,0.0,0.0,1.0,10.0,19.375)"><text id="ProcessOnText1028" fill="#ffffff" font-weight="normal" font-style="normal" text-decoration="blink" font-family="Comic Sans MS" text-anchor="middle" font-size="17" x="80.0" y="17.425">源码变更</text></g></g><g id="ProcessOnG1029" transform="matrix(1.0,0.0,0.0,1.0,382.0,260.0)" opacity="1.0"><path id="ProcessOnPath1030" d="M0.0 0.0L180.0 0.0L180.0 60.0L0.0 60.0Z" stroke="#66b2ff" stroke-width="2.0" stroke-dasharray="none" opacity="1.0" fill="#66b2ff"/><g id="ProcessOnG1031" transform="matrix(1.0,0.0,0.0,1.0,10.0,19.375)"><text id="ProcessOnText1032" fill="#ffffff" font-weight="normal" font-style="normal" text-decoration="blink" font-family="Comic Sans MS" text-anchor="middle" font-size="17" x="80.0" y="17.425">打包、生成安装包</text></g></g><g id="ProcessOnG1033" transform="matrix(1.0,0.0,0.0,1.0,382.0,382.0)" opacity="1.0"><path id="ProcessOnPath1034" d="M0.0 0.0L180.0 0.0L180.0 60.0L0.0 60.0Z" stroke="#66b2ff" stroke-width="2.0" stroke-dasharray="none" opacity="1.0" fill="#66b2ff"/><g id="ProcessOnG1035" transform="matrix(1.0,0.0,0.0,1.0,10.0,19.375)"><text id="ProcessOnText1036" fill="#ffffff" font-weight="normal" font-style="normal" text-decoration="blink" font-family="Comic Sans MS" text-anchor="middle" font-size="17" x="80.0" y="17.425">上传安装包到 fir.im</text></g></g><g id="ProcessOnG1037" transform="matrix(1.0,0.0,0.0,1.0,382.0,143.0)" opacity="1.0"><path id="ProcessOnPath1038" d="M0.0 30.0L90.0 0.0L180.0 30.0L90.0 60.0L0.0 30.0Z" stroke="#ff6666" stroke-width="2.0" stroke-dasharray="none" opacity="1.0" fill="#ff6666"/><g id="ProcessOnG1039" transform="matrix(1.0,0.0,0.0,1.0,10.0,19.375)"><text id="ProcessOnText1040" fill="#ffffff" font-weight="normal" font-style="normal" text-decoration="blink" font-family="Comic Sans MS" text-anchor="middle" font-size="17" x="80.0" y="17.425">测试通过</text></g></g><g id="ProcessOnG1041" transform="matrix(1.0,0.0,0.0,1.0,382.0,21.0)" opacity="1.0"><path id="ProcessOnPath1042" d="M0.0 0.0L180.0 0.0L180.0 60.0L0.0 60.0Z" stroke="#66b2ff" stroke-width="2.0" stroke-dasharray="none" opacity="1.0" fill="#66b2ff"/><g id="ProcessOnG1043" transform="matrix(1.0,0.0,0.0,1.0,10.0,19.375)"><text id="ProcessOnText1044" fill="#ffffff" font-weight="normal" font-style="normal" text-decoration="blink" font-family="Comic Sans MS" text-anchor="middle" font-size="17" x="80.0" y="17.425">编译、测试</text></g></g><g id="ProcessOnG1045" transform="matrix(1.0,0.0,0.0,1.0,83.0,502.0)" opacity="1.0"><path id="ProcessOnPath1046" d="M20.0 0.0L160.0 0.0C186.66666666666666 0.0 186.66666666666666 60.0 160.0 60.0L20.0 60.0C-6.666666666666667 60.0 -6.666666666666667 0.0 20.0 0.0Z" stroke="#00cc00" stroke-width="2.0" stroke-dasharray="none" opacity="1.0" fill="#00cc00"/><g id="ProcessOnG1047" transform="matrix(1.0,0.0,0.0,1.0,10.0,19.375)"><text id="ProcessOnText1048" fill="#ffffff" font-weight="normal" font-style="normal" text-decoration="blink" font-family="Comic Sans MS" text-anchor="middle" font-size="17" x="80.0" y="17.425">完成</text></g></g><g id="ProcessOnG1049"><path id="ProcessOnPath1050" d="M263.0 290.0L322.5 290.0L322.5 51.0L366.7639320225002 51.0" stroke="#ffb366" stroke-width="2.0" stroke-dasharray="none" fill="none" marker-end="url(#ProcessOnMarker1051)"/><g id="ProcessOnG1053" transform="matrix(1.0,0.0,0.0,1.0,322.5,167.4930339887499)"><path id="ProcessOnPath1054" d="M0 0H8.0V21.25H0Z" fill="#fff" transform="matrix(1.0,0.0,0.0,1.0,-4.0,0.0)"/><text id="ProcessOnText1055" fill="#ffb366" font-weight="normal" font-style="normal" text-decoration="blink" font-family="Comic Sans MS" text-anchor="middle" font-size="17" x="0.0" y="17.425">是</text></g></g><g id="ProcessOnG1056"><path id="ProcessOnPath1057" d="M472.0 320.0L472.0 351.0L472.0 351.0L472.0 366.7639320225002" stroke="#ffb366" stroke-width="2.0" stroke-dasharray="none" fill="none" marker-end="url(#ProcessOnMarker1058)"/></g><g id="ProcessOnG1060"><path id="ProcessOnPath1061" d="M472.0 442.0L472.0 472.0L472.0 472.0L472.0 486.7639320225002" stroke="#ffb366" stroke-width="2.0" stroke-dasharray="none" fill="none" marker-end="url(#ProcessOnMarker1062)"/></g><g id="ProcessOnG1064"><path id="ProcessOnPath1065" d="M382.0 532.0L322.5 532.0L322.5 532.0L278.2360679774998 532.0" stroke="#ffb366" stroke-width="2.0" stroke-dasharray="none" fill="none" marker-end="url(#ProcessOnMarker1066)"/></g><g id="ProcessOnG1068"><path id="ProcessOnPath1069" d="M562.0 173.0L592.0 173.0L592.0 532.0L577.2360679774998 532.0" stroke="#ffb366" stroke-width="2.0" stroke-dasharray="none" fill="none" marker-end="url(#ProcessOnMarker1070)"/><g id="ProcessOnG1072" transform="matrix(1.0,0.0,0.0,1.0,592.0,334.2569660112501)"><path id="ProcessOnPath1073" d="M0 0H8.0V21.25H0Z" fill="#fff" transform="matrix(1.0,0.0,0.0,1.0,-4.0,0.0)"/><text id="ProcessOnText1074" fill="#ffb366" font-weight="normal" font-style="normal" text-decoration="blink" font-family="Comic Sans MS" text-anchor="middle" font-size="17" x="0.0" y="17.425">否</text></g></g><g id="ProcessOnG1075"><path id="ProcessOnPath1076" d="M472.0 81.0L472.0 112.0L472.0 112.0L472.0 127.76393202250021" stroke="#ffb366" stroke-width="2.0" stroke-dasharray="none" fill="none" marker-end="url(#ProcessOnMarker1077)"/></g><g id="ProcessOnG1079"><path id="ProcessOnPath1080" d="M173.0 320.0L173.0 400.5L173.0 400.5L173.0 465.7639320225002" stroke="#ffb366" stroke-width="2.0" stroke-dasharray="none" fill="none" marker-end="url(#ProcessOnMarker1081)"/><g id="ProcessOnG1083" transform="matrix(1.0,0.0,0.0,1.0,173.0,382.25696601125014)"><path id="ProcessOnPath1084" d="M0 0H8.0V21.25H0Z" fill="#fff" transform="matrix(1.0,0.0,0.0,1.0,-4.0,0.0)"/><text id="ProcessOnText1085" fill="#ffb366" font-weight="normal" font-style="normal" text-decoration="blink" font-family="Comic Sans MS" text-anchor="middle" font-size="17" x="0.0" y="17.425">否</text></g></g><g id="ProcessOnG1086"><path id="ProcessOnPath1087" d="M472.0 203.0L472.0 231.5L472.0 231.5L472.0 244.7639320225002" stroke="#ffb366" stroke-width="2.0" stroke-dasharray="none" fill="none" marker-end="url(#ProcessOnMarker1088)"/><g id="ProcessOnG1090" transform="matrix(1.0,0.0,0.0,1.0,472.0,213.25696601125009)"><path id="ProcessOnPath1091" d="M0 0H17.0V21.25H0Z" fill="#fff" transform="matrix(1.0,0.0,0.0,1.0,-8.5,0.0)"/><text id="ProcessOnText1092" fill="#ffb366" font-weight="normal" font-style="normal" text-decoration="blink" font-family="微软雅黑" text-anchor="middle" font-size="17" x="0.0" y="17.425">是</text></g></g></g></g></svg>